0
SECTION
2
HEADER
9
$INSUNITS
70
4
9
$ACADVER
1
AC1014
9
$HANDSEED
5
FFFF
0
ENDSEC
0
SECTION
2
TABLES
0
TABLE
2
VPORT
5
8
100
AcDbSymbolTable
0
ENDTAB
0
TABLE
2
LTYPE
5
5
100
AcDbSymbolTable
0
LTYPE
5
14
100
AcDbSymbolTableRecord
100
AcDbLinetypeTableRecord
2
BYBLOCK
70
0
0
LTYPE
5
15
100
AcDbSymbolTableRecord
100
AcDbLinetypeTableRecord
2
BYLAYER
70
0
0
ENDTAB
0
TABLE
2
LAYER
5
2
100
AcDbSymbolTable
70
2
0
LAYER
5
50
100
AcDbSymbolTableRecord
100
AcDbLayerTableRecord
2
0
70
0
6
CONTINUOUS
0
ENDTAB
0
TABLE
2
STYLE
5
3
100
AcDbSymbolTable
70
1
0
STYLE
5
11
100
AcDbSymbolTableRecord
100
AcDbTextStyleTableRecord
2
STANDARD
70
0
0
ENDTAB
0
TABLE
2
VIEW
5
6
100
AcDbSymbolTable
70
0
0
ENDTAB
0
TABLE
2
UCS
5
7
100
AcDbSymbolTable
70
0
0
ENDTAB
0
TABLE
2
APPID
5
9
100
AcDbSymbolTable
70
2
0
APPID
5
12
100
AcDbSymbolTableRecord
100
AcDbRegAppTableRecord
2
ACAD
70
0
0
ENDTAB
0
TABLE
2
DIMSTYLE
5
A
100
AcDbSymbolTable
70
1
0
ENDTAB
0
TABLE
2
BLOCK_RECORD
5
1
100
AcDbSymbolTable
70
1
0
BLOCK_RECORD
5
1F
100
AcDbSymbolTableRecord
100
AcDbBlockTableRecord
2
*MODEL_SPACE
0
BLOCK_RECORD
5
1B
100
AcDbSymbolTableRecord
100
AcDbBlockTableRecord
2
*PAPER_SPACE
0
ENDTAB
0
ENDSEC
0
SECTION
2
BLOCKS
0
BLOCK
5
20
100
AcDbEntity
100
AcDbBlockBegin
2
*MODEL_SPACE
0
ENDBLK
5
21
100
AcDbEntity
100
AcDbBlockEnd
0
BLOCK
5
1C
100
AcDbEntity
100
AcDbBlockBegin
2
*PAPER_SPACE
0
ENDBLK
5
1D
100
AcDbEntity
100
AcDbBlockEnd
0
ENDSEC
0
SECTION
2
ENTITIES
0
CIRCLE
5
100
100
AcDbEntity
8
0
100
AcDbCircle
10
110.92261889578037
20
-122.42261889578037
30
0
40
1.5000000000000036
0
LWPOLYLINE
5
101
100
AcDbEntity
8
0
100
AcDbPolyline
90
8
70
1
43
0.0
10
142.2888452302941
20
55
10
192.28884523029421
20
55.000000000000036
42
0.75407390286389897
10
-192.2888452302941
20
55
10
-142.2888452302941
20
55
10
-142.2888452302941
20
-55
10
-192.28884523029416
20
-54.999999999999936
42
0.75407390286389819
10
192.28884523029407
20
-54.999999999999943
10
142.2888452302941
20
-55
0
CIRCLE
5
102
100
AcDbEntity
8
0
100
AcDbCircle
10
116.67261889578036
20
116.67261889578036
30
0
40
4.2500000000000071
0
CIRCLE
5
103
100
AcDbEntity
8
0
100
AcDbCircle
10
-116.67261889578032
20
-116.67261889578032
30
0
40
4.2500000000000053
0
LWPOLYLINE
5
104
100
AcDbEntity
8
0
100
AcDbPolyline
90
4
70
1
43
0.0
10
40.000000000000036
20
130
10
40.000000000000036
20
110
10
-39.999999999999964
20
110
10
-39.999999999999964
20
130
0
CIRCLE
5
105
100
AcDbEntity
8
0
100
AcDbCircle
10
-75.519004230723283
20
108.32875887777905
30
0
40
1.4999999999999949
0
CIRCLE
5
106
100
AcDbEntity
8
0
100
AcDbCircle
10
-5.7499999999999654
20
-5.7499999999998943
30
0
40
1.5000000000000002
0
LWPOLYLINE
5
107
100
AcDbEntity
8
0
100
AcDbPolyline
90
4
70
1
43
0.0
10
40.000000000000036
20
-60
10
-39.999999999999964
20
-60
10
-39.999999999999964
20
-30
10
40.000000000000036
20
-30
0
CIRCLE
5
108
100
AcDbEntity
8
0
100
AcDbCircle
10
-105.28884523029413
20
-24.250000000000011
30
0
40
1.4999999999999938
0
CIRCLE
5
109
100
AcDbEntity
8
0
100
AcDbCircle
10
-116.67261889578032
20
116.67261889578032
30
0
40
4.2500000000000071
0
CIRCLE
5
110
100
AcDbEntity
8
0
100
AcDbCircle
10
-75.519004230723283
20
108.32875887777905
30
0
40
1.4999999999999949
0
CIRCLE
5
111
100
AcDbEntity
8
0
100
AcDbCircle
10
-118.2888452302941
20
24.250000000000011
30
0
40
1.4999999999999991
0
CIRCLE
5
112
100
AcDbEntity
8
0
100
AcDbCircle
10
79.288845230294072
20
-24.250000000000011
30
0
40
1.4999999999999951
0
CIRCLE
5
113
100
AcDbEntity
8
0
100
AcDbCircle
10
-122.42261889578032
20
110.92261889578033
30
0
40
1.4999999999999971
0
ARC
5
114
100
AcDbEntity
8
0
100
AcDbCircle
10
0
20
-1.7763568394002505e-14
30
0
40
199.99999999999997
100
AcDbArc
50
15.962014162847234
51
164.03798583715277
0
CIRCLE
5
115
100
AcDbEntity
8
0
100
AcDbCircle
10
92.288845230294072
20
-24.250000000000011
30
0
40
1.5000000000000049
0
CIRCLE
5
116
100
AcDbEntity
8
0
100
AcDbCircle
10
-110.92261889578033
20
-110.92261889578033
30
0
40
1.5000000000000036
0
CIRCLE
5
117
100
AcDbEntity
8
0
100
AcDbCircle
10
-108.32875887777905
20
-75.519004230723283
30
0
40
1.5000000000000036
0
CIRCLE
5
118
100
AcDbEntity
8
0
100
AcDbCircle
10
110.92261889578037
20
110.92261889578037
30
0
40
1.5000000000000049
0
CIRCLE
5
119
100
AcDbEntity
8
0
100
AcDbCircle
10
-110.92261889578033
20
-122.42261889578032
30
0
40
1.4999999999999971
0
CIRCLE
5
120
100
AcDbEntity
8
0
100
AcDbCircle
10
79.288845230294072
20
-24.250000000000011
30
0
40
1.4999999999999991
0
CIRCLE
5
121
100
AcDbEntity
8
0
100
AcDbCircle
10
11.500000000000005
20
-188.43134832984435
30
0
40
1.4999999999999891
0
CIRCLE
5
122
100
AcDbEntity
8
0
100
AcDbCircle
10
-118.2888452302941
20
-24.250000000000011
30
0
40
1.5000000000000036
0
CIRCLE
5
123
100
AcDbEntity
8
0
100
AcDbCircle
10
92.288845230294072
20
-24.250000000000011
30
0
40
1.4999999999999991
0
CIRCLE
5
124
100
AcDbEntity
8
0
100
AcDbCircle
10
122.42261889578037
20
-110.92261889578037
30
0
40
1.5000000000000033
0
CIRCLE
5
125
100
AcDbEntity
8
0
100
AcDbCircle
10
11.500000000000002
20
158.4313483298443
30
0
40
1.4999999999999971
0
LWPOLYLINE
5
126
100
AcDbEntity
8
0
100
AcDbPolyline
90
4
70
1
43
0.0
10
40.000000000000014
20
30
10
40.000000000000014
20
60
10
-40
20
60
10
-40
20
30
0
CIRCLE
5
127
100
AcDbEntity
8
0
100
AcDbCircle
10
79.288845230294072
20
24.250000000000011
30
0
40
1.4999999999999949
0
CIRCLE
5
128
100
AcDbEntity
8
0
100
AcDbCircle
10
-105.28884523029413
20
-24.250000000000011
30
0
40
0
0
CIRCLE
5
129
100
AcDbEntity
8
0
100
AcDbCircle
10
-11.500000000000002
20
188.43134832984424
30
0
40
1.4999999999999969
0
CIRCLE
5
130
100
AcDbEntity
8
0
100
AcDbCircle
10
116.67261889578036
20
-116.67261889578036
30
0
40
4.2500000000000053
0
CIRCLE
5
131
100
AcDbEntity
8
0
100
AcDbCircle
10
11.500000000000002
20
188.43134832984424
30
0
40
1.4999999999999882
0
CIRCLE
5
132
100
AcDbEntity
8
0
100
AcDbCircle
10
-92.288845230294072
20
-24.250000000000011
30
0
40
1.5000000000000004
0
CIRCLE
5
133
100
AcDbEntity
8
0
100
AcDbCircle
10
105.28884523029413
20
24.250000000000011
30
0
40
1.5000000000000033
0
CIRCLE
5
134
100
AcDbEntity
8
0
100
AcDbCircle
10
-79.288845230294072
20
-24.250000000000011
30
0
40
1.4999999999999991
0
CIRCLE
5
135
100
AcDbEntity
8
0
100
AcDbCircle
10
110.92261889578037
20
122.42261889578037
30
0
40
1.5000000000000102
0
CIRCLE
5
136
100
AcDbEntity
8
0
100
AcDbCircle
10
-75.519004230723283
20
-108.32875887777905
30
0
40
1.5000000000000062
0
CIRCLE
5
137
100
AcDbEntity
8
0
100
AcDbCircle
10
-11.500000000000002
20
-158.4313483298443
30
0
40
1.5000000000000016
0
CIRCLE
5
138
100
AcDbEntity
8
0
100
AcDbCircle
10
79.288845230294072
20
24.250000000000011
30
0
40
1.4999999999999922
0
CIRCLE
5
139
100
AcDbEntity
8
0
100
AcDbCircle
10
108.32875887777905
20
-75.519004230723283
30
0
40
1.5000000000000049
0
CIRCLE
5
140
100
AcDbEntity
8
0
100
AcDbCircle
10
-5.7499999999999654
20
5.7500000000001048
30
0
40
1.5000000000000002
0
CIRCLE
5
141
100
AcDbEntity
8
0
100
AcDbCircle
10
0
20
-80
30
0
40
1.4999999999999951
0
CIRCLE
5
142
100
AcDbEntity
8
0
100
AcDbCircle
10
11.500000000000005
20
-158.4313483298443
30
0
40
1.5000000000000013
0
CIRCLE
5
143
100
AcDbEntity
8
0
100
AcDbCircle
10
-108.32875887777905
20
75.519004230723283
30
0
40
1.5000000000000038
0
LWPOLYLINE
5
144
100
AcDbEntity
8
0
100
AcDbPolyline
90
4
70
1
43
0.0
10
40.000000000000014
20
-110
10
-40
20
-110
10
-40
20
-130
10
40.000000000000014
20
-130
0
CIRCLE
5
145
100
AcDbEntity
8
0
100
AcDbCircle
10
105.28884523029413
20
-24.250000000000011
30
0
40
1.4999999999999991
0
CIRCLE
5
146
100
AcDbEntity
8
0
100
AcDbCircle
10
5.7500000000000364
20
5.7500000000001048
30
0
40
1.5000000000000002
0
CIRCLE
5
147
100
AcDbEntity
8
0
100
AcDbCircle
10
108.32875887777905
20
75.519004230723283
30
0
40
1.5000000000000016
0
CIRCLE
5
148
100
AcDbEntity
8
0
100
AcDbCircle
10
75.519004230723283
20
-108.32875887777905
30
0
40
1.5000000000000036
0
CIRCLE
5
149
100
AcDbEntity
8
0
100
AcDbCircle
10
122.42261889578037
20
110.92261889578037
30
0
40
1.4999999999999969
0
CIRCLE
5
150
100
AcDbEntity
8
0
100
AcDbCircle
10
1.7763568394002498e-14
20
1.4210854715202006e-13
30
0
40
4.25
0
CIRCLE
5
151
100
AcDbEntity
8
0
100
AcDbCircle
10
5.7500000000000364
20
-5.7499999999998943
30
0
40
1.5000000000000002
0
CIRCLE
5
152
100
AcDbEntity
8
0
100
AcDbCircle
10
75.519004230723283
20
108.32875887777905
30
0
40
1.5000000000000036
0
CIRCLE
5
153
100
AcDbEntity
8
0
100
AcDbCircle
10
118.2888452302941
20
24.250000000000011
30
0
40
1.5000000000000036
0
CIRCLE
5
154
100
AcDbEntity
8
0
100
AcDbCircle
10
-79.288845230294072
20
24.250000000000011
30
0
40
1.5000000000000036
0
CIRCLE
5
155
100
AcDbEntity
8
0
100
AcDbCircle
10
-11.500000000000002
20
158.4313483298443
30
0
40
1.5000000000000058
0
CIRCLE
5
156
100
AcDbEntity
8
0
100
AcDbCircle
10
92.288845230294072
20
24.250000000000011
30
0
40
1.500000000000006
0
LINE
5
157
100
AcDbEntity
8
0
100
AcDbLine
10
142.2888452302941
20
55
30
0
11
142.2888452302941
21
-55
31
0
0
CIRCLE
5
158
100
AcDbEntity
8
0
100
AcDbCircle
10
-110.92261889578033
20
110.92261889578033
30
0
40
1.4999999999999971
0
CIRCLE
5
159
100
AcDbEntity
8
0
100
AcDbCircle
10
92.288845230294072
20
24.250000000000011
30
0
40
1.5000000000000036
0
CIRCLE
5
160
100
AcDbEntity
8
0
100
AcDbCircle
10
-108.32875887777905
20
-75.519004230723283
30
0
40
1.5000000000000036
0
LINE
5
161
100
AcDbEntity
8
0
100
AcDbLine
10
142.2888452302941
20
-55
30
0
11
192.28884523029407
21
-54.999999999999943
31
0
0
CIRCLE
5
162
100
AcDbEntity
8
0
100
AcDbCircle
10
105.28884523029413
20
-24.250000000000011
30
0
40
1.5000000000000004
0
CIRCLE
5
163
100
AcDbEntity
8
0
100
AcDbCircle
10
-105.28884523029413
20
24.250000000000011
30
0
40
1.5000000000000036
0
CIRCLE
5
164
100
AcDbEntity
8
0
100
AcDbCircle
10
-110.92261889578033
20
122.42261889578032
30
0
40
1.4999999999999971
0
CIRCLE
5
165
100
AcDbEntity
8
0
100
AcDbCircle
10
-11.500000000000002
20
-188.43134832984435
30
0
40
1.5000000000000091
0
CIRCLE
5
166
100
AcDbEntity
8
0
100
AcDbCircle
10
118.2888452302941
20
-24.250000000000011
30
0
40
1.5000000000000033
0
LINE
5
167
100
AcDbEntity
8
0
100
AcDbLine
10
-192.2888452302941
20
55
30
0
11
-142.2888452302941
21
55
31
0
0
LINE
5
168
100
AcDbEntity
8
0
100
AcDbLine
10
142.2888452302941
20
55
30
0
11
192.28884523029407
21
55
31
0
0
CIRCLE
5
169
100
AcDbEntity
8
0
100
AcDbCircle
10
122.42261889578037
20
-122.42261889578037
30
0
40
1.4999999999999971
0
CIRCLE
5
170
100
AcDbEntity
8
0
100
AcDbCircle
10
122.42261889578037
20
122.42261889578037
30
0
40
1.5000000000000036
0
CIRCLE
5
171
100
AcDbEntity
8
0
100
AcDbCircle
10
-122.42261889578032
20
122.42261889578032
30
0
40
1.500000000000008
0
CIRCLE
5
172
100
AcDbEntity
8
0
100
AcDbCircle
10
0
20
80
30
0
40
1.5000000000000002
0
CIRCLE
5
173
100
AcDbEntity
8
0
100
AcDbCircle
10
110.92261889578037
20
-110.92261889578037
30
0
40
1.5000000000000036
0
CIRCLE
5
174
100
AcDbEntity
8
0
100
AcDbCircle
10
-92.288845230294072
20
24.250000000000011
30
0
40
1.5000000000000047
0
CIRCLE
5
175
100
AcDbEntity
8
0
100
AcDbCircle
10
-122.42261889578032
20
-110.92261889578033
30
0
40
1.4999999999999971
0
LINE
5
176
100
AcDbEntity
8
0
100
AcDbLine
10
-192.28884523029407
20
-54.999999999999893
30
0
11
-142.2888452302941
21
-55
31
0
0
CIRCLE
5
177
100
AcDbEntity
8
0
100
AcDbCircle
10
-108.32875887777905
20
75.519004230723283
30
0
40
1.5000000000000036
0
CIRCLE
5
178
100
AcDbEntity
8
0
100
AcDbCircle
10
-122.42261889578032
20
-122.42261889578032
30
0
40
1.5000000000000062
0
CIRCLE
5
179
100
AcDbEntity
8
0
100
AcDbCircle
10
132.2888452302941
20
24.250000000000011
30
0
40
1.4999999999999991
0
CIRCLE
5
180
100
AcDbEntity
8
0
100
AcDbCircle
10
132.2888452302941
20
-24.250000000000011
30
0
40
1.5000000000000036
0
CIRCLE
5
181
100
AcDbEntity
8
0
100
AcDbCircle
10
-132.2888452302941
20
24.250000000000011
30
0
40
1.4999999999999991
0
CIRCLE
5
182
100
AcDbEntity
8
0
100
AcDbCircle
10
-132.2888452302941
20
-24.250000000000011
30
0
40
1.4999999999999991
0
ENDSEC
0
SECTION
2
OBJECTS
0
DICTIONARY
5
C
100
AcDbDictionary
3
ACAD_GROUP
350
D
3
ACAD_MLINESTYLE
350
17
0
DICTIONARY
5
D
100
AcDbDictionary
0
DICTIONARY
5
1A
330
C
100
AcDbDictionary
0
DICTIONARY
5
17
100
AcDbDictionary
0
ENDSEC
0
EOF
