0
SECTION
2
HEADER
9
$INSUNITS
70
4
9
$ACADVER
1
AC1014
9
$HANDSEED
5
FFFF
0
ENDSEC
0
SECTION
2
TABLES
0
TABLE
2
VPORT
5
8
100
AcDbSymbolTable
0
ENDTAB
0
TABLE
2
LTYPE
5
5
100
AcDbSymbolTable
0
LTYPE
5
14
100
AcDbSymbolTableRecord
100
AcDbLinetypeTableRecord
2
BYBLOCK
70
0
0
LTYPE
5
15
100
AcDbSymbolTableRecord
100
AcDbLinetypeTableRecord
2
BYLAYER
70
0
0
ENDTAB
0
TABLE
2
LAYER
5
2
100
AcDbSymbolTable
70
2
0
LAYER
5
50
100
AcDbSymbolTableRecord
100
AcDbLayerTableRecord
2
0
70
0
6
CONTINUOUS
0
ENDTAB
0
TABLE
2
STYLE
5
3
100
AcDbSymbolTable
70
1
0
STYLE
5
11
100
AcDbSymbolTableRecord
100
AcDbTextStyleTableRecord
2
STANDARD
70
0
0
ENDTAB
0
TABLE
2
VIEW
5
6
100
AcDbSymbolTable
70
0
0
ENDTAB
0
TABLE
2
UCS
5
7
100
AcDbSymbolTable
70
0
0
ENDTAB
0
TABLE
2
APPID
5
9
100
AcDbSymbolTable
70
2
0
APPID
5
12
100
AcDbSymbolTableRecord
100
AcDbRegAppTableRecord
2
ACAD
70
0
0
ENDTAB
0
TABLE
2
DIMSTYLE
5
A
100
AcDbSymbolTable
70
1
0
ENDTAB
0
TABLE
2
BLOCK_RECORD
5
1
100
AcDbSymbolTable
70
1
0
BLOCK_RECORD
5
1F
100
AcDbSymbolTableRecord
100
AcDbBlockTableRecord
2
*MODEL_SPACE
0
BLOCK_RECORD
5
1B
100
AcDbSymbolTableRecord
100
AcDbBlockTableRecord
2
*PAPER_SPACE
0
ENDTAB
0
ENDSEC
0
SECTION
2
BLOCKS
0
BLOCK
5
20
100
AcDbEntity
100
AcDbBlockBegin
2
*MODEL_SPACE
0
ENDBLK
5
21
100
AcDbEntity
100
AcDbBlockEnd
0
BLOCK
5
1C
100
AcDbEntity
100
AcDbBlockBegin
2
*PAPER_SPACE
0
ENDBLK
5
1D
100
AcDbEntity
100
AcDbBlockEnd
0
ENDSEC
0
SECTION
2
ENTITIES
0
LWPOLYLINE
5
100
100
AcDbEntity
8
0
100
AcDbPolyline
90
4
70
1
43
0.0
10
57.499999999999858
20
-99.592921435210513
42
-0.26794919243112214
10
-57.499999999999893
20
-99.592921435210528
10
-59.999999999999915
20
-103.92304845413271
42
0.26794919243112214
10
59.999999999999943
20
-103.92304845413273
0
LWPOLYLINE
5
101
100
AcDbEntity
8
0
100
AcDbPolyline
90
4
70
1
43
0.0
10
-34.641016151377556
20
19.999999999999996
10
-30.310889132455365
20
17.499999999999996
42
0.26794919243112192
10
-30.310889132455394
20
-17.49999999999995
10
-34.641016151377578
20
-19.999999999999947
42
-0.26794919243112164
0
LWPOLYLINE
5
102
100
AcDbEntity
8
0
100
AcDbPolyline
90
4
70
1
43
0.0
10
-69.999999999999929
20
-121.24355652982143
42
0.26794919243112214
10
69.999999999999801
20
-121.24355652982149
10
67.499999999999801
20
-116.91342951089931
42
-0.26794919243112214
10
-67.499999999999858
20
-116.91342951089929
0
CIRCLE
5
103
100
AcDbEntity
8
0
100
AcDbCircle
10
110.92261889578037
20
-110.92261889578037
30
0
40
1.5000000000000036
0
CIRCLE
5
104
100
AcDbEntity
8
0
100
AcDbCircle
10
-110.92261889578033
20
-110.92261889578033
30
0
40
1.4999999999999971
0
LWPOLYLINE
5
105
100
AcDbEntity
8
0
100
AcDbPolyline
90
4
70
1
43
0.0
10
-64.999999999999872
20
-112.58330249197709
42
0.26794919243112203
10
64.999999999999844
20
-112.58330249197709
10
62.499999999999893
20
-108.2531754730549
42
-0.26794919243112214
10
-62.499999999999964
20
-108.25317547305487
0
LWPOLYLINE
5
106
100
AcDbEntity
8
0
100
AcDbPolyline
90
4
70
1
43
0.0
10
-38.971143170299754
20
22.5
42
0.26794919243112236
10
-38.971143170299783
20
-22.499999999999961
10
-43.301270189221981
20
-24.999999999999922
42
-0.26794919243112214
10
-43.301270189221945
20
25
0
CIRCLE
5
107
100
AcDbEntity
8
0
100
AcDbCircle
10
122.42261889578037
20
110.92261889578037
30
0
40
1.5000000000000058
0
LWPOLYLINE
5
108
100
AcDbEntity
8
0
100
AcDbPolyline
90
4
70
1
43
0.0
10
52.499999999999915
20
-90.932667397366131
42
-0.26794919243112214
10
-52.499999999999929
20
-90.932667397366146
10
-54.999999999999943
20
-95.262794416288301
42
0.26794919243112214
10
54.999999999999936
20
-95.262794416288301
0
CIRCLE
5
109
100
AcDbEntity
8
0
100
AcDbCircle
10
122.42261889578037
20
-122.42261889578037
30
0
40
1.4999999999999971
0
LWPOLYLINE
5
110
100
AcDbEntity
8
0
100
AcDbPolyline
90
4
70
1
43
0.0
10
-29.999999999999929
20
51.961524227066384
42
-0.26794919243112214
10
29.999999999999993
20
51.96152422706632
10
27.499999999999986
20
47.631397208144151
42
0.26794919243112214
10
-27.499999999999929
20
47.631397208144179
0
LWPOLYLINE
5
111
100
AcDbEntity
8
0
100
AcDbPolyline
90
4
70
1
43
0.0
10
-51.961524227066356
20
30
10
-47.631397208144136
20
27.500000000000007
42
0.26794919243112214
10
-47.631397208144179
20
-27.499999999999929
10
-51.961524227066391
20
-29.999999999999929
42
-0.26794919243112236
0
CIRCLE
5
112
100
AcDbEntity
8
0
100
AcDbCircle
10
122.42261889578037
20
-110.92261889578037
30
0
40
1.5000000000000058
0
CIRCLE
5
113
100
AcDbEntity
8
0
100
AcDbCircle
10
122.42261889578037
20
122.42261889578037
30
0
40
1.4999999999999922
0
LWPOLYLINE
5
114
100
AcDbEntity
8
0
100
AcDbPolyline
90
4
70
1
43
0.0
10
32.499999999999922
20
-56.291651245988561
10
34.999999999999922
20
-60.621778264910745
42
-0.26794919243112236
10
-34.999999999999964
20
-60.621778264910724
10
-32.499999999999972
20
-56.291651245988525
42
0.26794919243112214
0
LWPOLYLINE
5
115
100
AcDbEntity
8
0
100
AcDbPolyline
90
4
70
1
43
0.0
10
-67.499999999999829
20
116.91342951089929
10
-69.999999999999858
20
121.24355652982149
42
-0.26794919243112236
10
69.999999999999986
20
121.24355652982146
10
67.499999999999872
20
116.91342951089928
42
0.26794919243112214
0
LWPOLYLINE
5
116
100
AcDbEntity
8
0
100
AcDbPolyline
90
4
70
1
43
0.0
10
-86.602540378443905
20
49.999999999999929
10
-82.272413359521721
20
47.499999999999986
42
0.26794919243112214
10
-82.272413359521792
20
-47.499999999999893
10
-86.602540378443933
20
-49.999999999999858
42
-0.26794919243112203
0
LWPOLYLINE
5
117
100
AcDbEntity
8
0
100
AcDbPolyline
90
4
70
1
43
0.0
10
-77.942286340599551
20
44.999999999999922
10
-73.612159321677325
20
42.499999999999993
42
0.26794919243112192
10
-73.612159321677382
20
-42.499999999999893
10
-77.942286340599509
20
-44.999999999999957
42
-0.26794919243112214
0
CIRCLE
5
118
100
AcDbEntity
8
0
100
AcDbCircle
10
-5.7500000000000027
20
-5.7499999999999565
30
0
40
1.5000000000000004
0
LWPOLYLINE
5
119
100
AcDbEntity
8
0
100
AcDbPolyline
90
4
70
1
43
0.0
10
38.971143170299754
20
-22.499999999999979
42
0.26794919243112192
10
38.971143170299754
20
22.499999999999964
10
43.301270189221967
20
24.999999999999964
42
-0.26794919243112247
10
43.301270189221974
20
-24.999999999999982
0
LWPOLYLINE
5
120
100
AcDbEntity
8
0
100
AcDbPolyline
90
4
70
1
43
0.0
10
-49.999999999999858
20
86.602540378443905
42
-0.26794919243112203
10
49.999999999999929
20
86.602540378443905
10
47.499999999999943
20
82.272413359521735
42
0.26794919243112225
10
-47.499999999999865
20
82.272413359521735
0
LWPOLYLINE
5
121
100
AcDbEntity
8
0
100
AcDbPolyline
90
4
70
1
43
0.0
10
-69.282032302755113
20
39.999999999999993
10
-64.951905283832929
20
37.499999999999957
42
0.26794919243112214
10
-64.951905283832971
20
-37.499999999999915
10
-69.282032302755155
20
-39.999999999999936
42
-0.26794919243112214
0
LWPOLYLINE
5
122
100
AcDbEntity
8
0
100
AcDbPolyline
90
4
70
1
43
0.0
10
-95.262794416288315
20
54.999999999999929
10
-90.932667397366131
20
52.499999999999964
42
0.26794919243112225
10
-90.932667397366217
20
-52.499999999999901
10
-95.262794416288372
20
-54.999999999999822
42
-0.26794919243112192
0
CIRCLE
5
123
100
AcDbEntity
8
0
100
AcDbCircle
10
-5.7500000000000009
20
5.7500000000000302
30
0
40
1.5000000000000004
0
LWPOLYLINE
5
124
100
AcDbEntity
8
0
100
AcDbPolyline
90
4
70
1
43
0.0
10
-60.621778264910724
20
34.999999999999993
10
-56.291651245988547
20
32.499999999999993
42
0.26794919243112203
10
-56.291651245988596
20
-32.499999999999915
10
-60.621778264910766
20
-34.999999999999901
42
-0.26794919243112209
0
LWPOLYLINE
5
125
100
AcDbEntity
8
0
100
AcDbPolyline
90
4
70
1
43
0.0
10
82.272413359521749
20
-47.499999999999915
42
0.26794919243112214
10
82.272413359521778
20
47.499999999999929
10
86.602540378443891
20
49.999999999999943
42
-0.26794919243112214
10
86.602540378443948
20
-49.999999999999893
0
LWPOLYLINE
5
126
100
AcDbEntity
8
0
100
AcDbPolyline
90
4
70
1
43
0.0
10
90.932667397366131
20
-52.499999999999929
42
0.26794919243112214
10
90.932667397366174
20
52.499999999999936
10
95.262794416288301
20
54.999999999999915
42
-0.26794919243112203
10
95.262794416288358
20
-54.999999999999893
0
LWPOLYLINE
5
127
100
AcDbEntity
8
0
100
AcDbPolyline
90
4
70
1
43
0.0
10
69.282032302755141
20
-39.999999999999964
10
64.951905283832957
20
-37.499999999999922
42
0.26794919243112192
10
64.951905283832957
20
37.499999999999936
10
69.282032302755127
20
39.999999999999929
42
-0.26794919243112214
0
LWPOLYLINE
5
128
100
AcDbEntity
8
0
100
AcDbPolyline
90
4
70
1
43
0.0
10
30.310889132455387
20
17.499999999999964
10
34.641016151377563
20
19.999999999999979
42
-0.26794919243112192
10
34.641016151377571
20
-19.999999999999975
10
30.310889132455372
20
-17.499999999999989
42
0.26794919243112225
0
LWPOLYLINE
5
129
100
AcDbEntity
8
0
100
AcDbPolyline
90
4
70
1
43
0.0
10
56.291651245988547
20
32.49999999999995
42
-0.26794919243112214
10
56.291651245988554
20
-32.499999999999964
10
60.621778264910745
20
-34.999999999999993
42
0.26794919243112236
10
60.621778264910745
20
34.999999999999929
0
LWPOLYLINE
5
130
100
AcDbEntity
8
0
100
AcDbPolyline
90
4
70
1
43
0.0
10
73.612159321677382
20
-42.499999999999915
42
0.26794919243112181
10
73.612159321677382
20
42.499999999999915
10
77.942286340599537
20
44.999999999999929
42
-0.26794919243112203
10
77.942286340599551
20
-44.999999999999893
0
CIRCLE
5
131
100
AcDbEntity
8
0
100
AcDbCircle
10
0
20
0
30
0
40
185
0
LWPOLYLINE
5
132
100
AcDbEntity
8
0
100
AcDbPolyline
90
4
70
1
43
0.0
10
-99.592921435210528
20
-57.499999999999929
10
-103.92304845413277
20
-59.999999999999915
42
-0.26794919243112236
10
-103.9230484541328
20
59.999999999999936
10
-99.592921435210485
20
57.499999999999964
42
0.26794919243112236
0
LWPOLYLINE
5
133
100
AcDbEntity
8
0
100
AcDbPolyline
90
4
70
1
43
0.0
10
47.631397208144151
20
-27.499999999999982
42
0.26794919243112214
10
47.631397208144179
20
27.499999999999932
10
51.961524227066391
20
29.999999999999947
42
-0.26794919243112214
10
51.961524227066356
20
-29.999999999999972
0
CIRCLE
5
134
100
AcDbEntity
8
0
100
AcDbCircle
10
116.67261889578036
20
116.67261889578036
30
0
40
4.2499999999999964
0
LWPOLYLINE
5
135
100
AcDbEntity
8
0
100
AcDbPolyline
90
4
70
1
43
0.0
10
121.24355652982149
20
-69.999999999999929
10
116.91342951089936
20
-67.499999999999872
42
0.26794919243112214
10
116.91342951089933
20
67.499999999999872
10
121.24355652982146
20
69.999999999999915
42
-0.26794919243112214
0
LWPOLYLINE
5
136
100
AcDbEntity
8
0
100
AcDbPolyline
90
4
70
1
43
0.0
10
-37.499999999999893
20
64.951905283832943
10
-39.999999999999886
20
69.282032302755155
42
-0.26794919243112203
10
39.999999999999986
20
69.282032302755113
10
37.499999999999922
20
64.951905283832929
42
0.26794919243112192
0
LWPOLYLINE
5
137
100
AcDbEntity
8
0
100
AcDbPolyline
90
4
70
1
43
0.0
10
25
20
43.301270189221945
10
22.499999999999993
20
38.971143170299747
42
0.26794919243112192
10
-22.499999999999961
20
38.971143170299776
10
-24.999999999999936
20
43.301270189221967
42
-0.26794919243112236
0
LWPOLYLINE
5
138
100
AcDbEntity
8
0
100
AcDbPolyline
90
4
70
1
43
0.0
10
34.999999999999986
20
60.621778264910724
10
32.499999999999993
20
56.291651245988525
42
0.26794919243112203
10
-32.499999999999915
20
56.291651245988561
10
-34.999999999999893
20
60.621778264910745
42
-0.26794919243112197
0
CIRCLE
5
139
100
AcDbEntity
8
0
100
AcDbCircle
10
5.7500000000000284
20
5.7500000000000009
30
0
40
1.5000000000000002
0
LWPOLYLINE
5
140
100
AcDbEntity
8
0
100
AcDbPolyline
90
4
70
1
43
0.0
10
99.592921435210471
20
57.499999999999936
10
103.92304845413267
20
59.999999999999915
42
-0.26794919243112225
10
103.92304845413278
20
-59.999999999999893
10
99.592921435210556
20
-57.499999999999858
42
0.26794919243112214
0
LWPOLYLINE
5
141
100
AcDbEntity
8
0
100
AcDbPolyline
90
4
70
1
43
0.0
10
42.499999999999964
20
73.612159321677325
42
0.26794919243112192
10
-42.499999999999893
20
73.612159321677382
10
-44.999999999999872
20
77.942286340599566
42
-0.26794919243112192
10
44.999999999999915
20
77.942286340599523
0
CIRCLE
5
142
100
AcDbEntity
8
0
100
AcDbCircle
10
-116.67261889578032
20
-116.67261889578032
30
0
40
4.2499999999999929
0
LWPOLYLINE
5
143
100
AcDbEntity
8
0
100
AcDbPolyline
90
4
70
1
43
0.0
10
108.25317547305488
20
-62.499999999999936
42
0.26794919243112203
10
108.25317547305495
20
62.499999999999865
10
112.58330249197709
20
64.999999999999872
42
-0.26794919243112203
10
112.58330249197712
20
-64.999999999999858
0
LWPOLYLINE
5
144
100
AcDbEntity
8
0
100
AcDbPolyline
90
4
70
1
43
0.0
10
-49.999999999999922
20
-86.602540378443891
42
0.26794919243112214
10
49.999999999999936
20
-86.602540378443891
10
47.499999999999872
20
-82.272413359521721
42
-0.26794919243112214
10
-47.499999999999893
20
-82.272413359521721
0
LWPOLYLINE
5
145
100
AcDbEntity
8
0
100
AcDbPolyline
90
4
70
1
43
0.0
10
37.499999999999915
20
-64.951905283832929
10
39.999999999999901
20
-69.282032302755141
42
-0.26794919243112192
10
-39.999999999999964
20
-69.282032302755113
10
-37.499999999999929
20
-64.951905283832915
42
0.26794919243112214
0
LINE
5
146
100
AcDbEntity
8
0
100
AcDbLine
10
112.58330249197709
20
64.999999999999858
30
0
11
108.25317547305495
21
62.499999999999865
31
0
0
CIRCLE
5
147
100
AcDbEntity
8
0
100
AcDbCircle
10
-110.92261889578033
20
110.92261889578033
30
0
40
1.4999999999999949
0
CIRCLE
5
148
100
AcDbEntity
8
0
100
AcDbCircle
10
116.67261889578036
20
-116.67261889578036
30
0
40
4.2500000000000053
0
CIRCLE
5
149
100
AcDbEntity
8
0
100
AcDbCircle
10
-110.92261889578033
20
-122.42261889578032
30
0
40
1.5000000000000036
0
CIRCLE
5
150
100
AcDbEntity
8
0
100
AcDbCircle
10
-110.92261889578033
20
122.42261889578032
30
0
40
1.4999999999999969
0
CIRCLE
5
151
100
AcDbEntity
8
0
100
AcDbCircle
10
110.92261889578037
20
-122.42261889578037
30
0
40
1.5000000000000036
0
CIRCLE
5
152
100
AcDbEntity
8
0
100
AcDbCircle
10
0
20
0
30
0
40
4.2500000000000009
0
LWPOLYLINE
5
153
100
AcDbEntity
8
0
100
AcDbPolyline
90
4
70
1
43
0.0
10
19.999999999999993
20
34.641016151377556
10
17.499999999999989
20
30.310889132455365
42
0.26794919243112192
10
-17.499999999999947
20
30.310889132455372
10
-19.999999999999968
20
34.641016151377563
42
-0.26794919243112236
0
CIRCLE
5
154
100
AcDbEntity
8
0
100
AcDbCircle
10
110.92261889578037
20
122.42261889578037
30
0
40
1.5000000000000071
0
LWPOLYLINE
5
155
100
AcDbEntity
8
0
100
AcDbPolyline
90
4
70
1
43
0.0
10
54.999999999999929
20
95.262794416288301
10
52.499999999999929
20
90.932667397366131
42
0.26794919243112214
10
-52.499999999999865
20
90.932667397366146
10
-54.999999999999901
20
95.262794416288315
42
-0.26794919243112192
0
CIRCLE
5
156
100
AcDbEntity
8
0
100
AcDbCircle
10
-122.42261889578032
20
110.92261889578033
30
0
40
1.5000000000000036
0
LWPOLYLINE
5
157
100
AcDbEntity
8
0
100
AcDbPolyline
90
4
70
1
43
0.0
10
27.499999999999911
20
-47.631397208144165
42
-0.26794919243112214
10
-27.499999999999979
20
-47.631397208144143
10
-29.999999999999972
20
-51.96152422706632
42
0.26794919243112209
10
29.999999999999929
20
-51.961524227066356
0
LWPOLYLINE
5
158
100
AcDbEntity
8
0
100
AcDbPolyline
90
4
70
1
43
0.0
10
-22.499999999999982
20
-38.971143170299747
10
-24.999999999999996
20
-43.301270189221945
42
0.26794919243112225
10
24.999999999999964
20
-43.301270189221974
10
22.499999999999964
20
-38.971143170299769
42
-0.26794919243112214
0
LWPOLYLINE
5
159
100
AcDbEntity
8
0
100
AcDbPolyline
90
4
70
1
43
0.0
10
-44.999999999999915
20
-77.942286340599551
10
-42.499999999999929
20
-73.612159321677353
42
0.26794919243112192
10
42.499999999999893
20
-73.612159321677353
10
44.999999999999915
20
-77.942286340599523
42
-0.26794919243112192
0
LWPOLYLINE
5
160
100
AcDbEntity
8
0
100
AcDbPolyline
90
4
70
1
43
0.0
10
19.99999999999995
20
-34.641016151377571
10
17.499999999999957
20
-30.31088913245538
42
-0.26794919243112203
10
-17.499999999999982
20
-30.310889132455362
10
-19.999999999999986
20
-34.641016151377549
42
0.26794919243112192
0
CIRCLE
5
161
100
AcDbEntity
8
0
100
AcDbCircle
10
-116.67261889578032
20
116.67261889578032
30
0
40
4.2499999999999938
0
LWPOLYLINE
5
162
100
AcDbEntity
8
0
100
AcDbPolyline
90
4
70
1
43
0.0
10
-57.499999999999893
20
99.592921435210528
10
-59.999999999999865
20
103.92304845413271
42
-0.26794919243112214
10
59.999999999999929
20
103.92304845413271
10
57.499999999999915
20
99.592921435210513
42
0.26794919243112214
0
LWPOLYLINE
5
163
100
AcDbEntity
8
0
100
AcDbPolyline
90
4
70
1
43
0.0
10
-121.24355652982148
20
-69.999999999999844
42
-0.26794919243112214
10
-121.24355652982145
20
69.999999999999986
10
-116.91342951089925
20
67.499999999999972
42
0.26794919243112214
10
-116.91342951089933
20
-67.499999999999844
0
LWPOLYLINE
5
164
100
AcDbEntity
8
0
100
AcDbPolyline
90
4
70
1
43
0.0
10
-112.58330249197712
20
64.999999999999929
10
-108.25317547305485
20
62.499999999999986
42
0.26794919243112192
10
-108.25317547305497
20
-62.499999999999829
10
-112.58330249197711
20
-64.999999999999872
42
-0.26794919243112203
0
LINE
5
165
100
AcDbEntity
8
0
100
AcDbLine
10
-69.999999999999801
20
121.24355652982149
30
0
11
-67.499999999999829
21
116.91342951089929
31
0
0
LWPOLYLINE
5
166
100
AcDbEntity
8
0
100
AcDbPolyline
90
4
70
1
43
0.0
10
64.999999999999901
20
112.58330249197709
10
62.499999999999993
20
108.25317547305485
42
0.26794919243112214
10
-62.499999999999801
20
108.25317547305494
10
-64.999999999999858
20
112.58330249197705
42
-0.26794919243112214
0
CIRCLE
5
167
100
AcDbEntity
8
0
100
AcDbCircle
10
0
20
0
30
0
40
4.2500000000000018
0
CIRCLE
5
168
100
AcDbEntity
8
0
100
AcDbCircle
10
-122.42261889578032
20
122.42261889578032
30
0
40
1.500000000000008
0
CIRCLE
5
169
100
AcDbEntity
8
0
100
AcDbCircle
10
5.7500000000000284
20
-5.7500000000000018
30
0
40
1.5000000000000002
0
CIRCLE
5
170
100
AcDbEntity
8
0
100
AcDbCircle
10
-122.42261889578032
20
-110.92261889578033
30
0
40
1.5000000000000016
0
CIRCLE
5
171
100
AcDbEntity
8
0
100
AcDbCircle
10
-122.42261889578032
20
-122.42261889578032
30
0
40
1.4999999999999978
0
CIRCLE
5
172
100
AcDbEntity
8
0
100
AcDbCircle
10
110.92261889578037
20
110.92261889578037
30
0
40
1.4999999999999933
0
CIRCLE
5
173
100
AcDbEntity
8
0
100
AcDbCircle
10
0
20
0
30
0
40
4.2500000000000009
0
ENDSEC
0
SECTION
2
OBJECTS
0
DICTIONARY
5
C
100
AcDbDictionary
3
ACAD_GROUP
350
D
3
ACAD_MLINESTYLE
350
17
0
DICTIONARY
5
D
100
AcDbDictionary
0
DICTIONARY
5
1A
330
C
100
AcDbDictionary
0
DICTIONARY
5
17
100
AcDbDictionary
0
ENDSEC
0
EOF
