0
SECTION
2
HEADER
9
$INSUNITS
70
4
9
$ACADVER
1
AC1014
9
$HANDSEED
5
FFFF
0
ENDSEC
0
SECTION
2
TABLES
0
TABLE
2
VPORT
5
8
100
AcDbSymbolTable
0
ENDTAB
0
TABLE
2
LTYPE
5
5
100
AcDbSymbolTable
0
LTYPE
5
14
100
AcDbSymbolTableRecord
100
AcDbLinetypeTableRecord
2
BYBLOCK
70
0
0
LTYPE
5
15
100
AcDbSymbolTableRecord
100
AcDbLinetypeTableRecord
2
BYLAYER
70
0
0
ENDTAB
0
TABLE
2
LAYER
5
2
100
AcDbSymbolTable
70
2
0
LAYER
5
50
100
AcDbSymbolTableRecord
100
AcDbLayerTableRecord
2
0
70
0
6
CONTINUOUS
0
ENDTAB
0
TABLE
2
STYLE
5
3
100
AcDbSymbolTable
70
1
0
STYLE
5
11
100
AcDbSymbolTableRecord
100
AcDbTextStyleTableRecord
2
STANDARD
70
0
0
ENDTAB
0
TABLE
2
VIEW
5
6
100
AcDbSymbolTable
70
0
0
ENDTAB
0
TABLE
2
UCS
5
7
100
AcDbSymbolTable
70
0
0
ENDTAB
0
TABLE
2
APPID
5
9
100
AcDbSymbolTable
70
2
0
APPID
5
12
100
AcDbSymbolTableRecord
100
AcDbRegAppTableRecord
2
ACAD
70
0
0
ENDTAB
0
TABLE
2
DIMSTYLE
5
A
100
AcDbSymbolTable
70
1
0
ENDTAB
0
TABLE
2
BLOCK_RECORD
5
1
100
AcDbSymbolTable
70
1
0
BLOCK_RECORD
5
1F
100
AcDbSymbolTableRecord
100
AcDbBlockTableRecord
2
*MODEL_SPACE
0
BLOCK_RECORD
5
1B
100
AcDbSymbolTableRecord
100
AcDbBlockTableRecord
2
*PAPER_SPACE
0
ENDTAB
0
ENDSEC
0
SECTION
2
BLOCKS
0
BLOCK
5
20
100
AcDbEntity
100
AcDbBlockBegin
2
*MODEL_SPACE
0
ENDBLK
5
21
100
AcDbEntity
100
AcDbBlockEnd
0
BLOCK
5
1C
100
AcDbEntity
100
AcDbBlockBegin
2
*PAPER_SPACE
0
ENDBLK
5
1D
100
AcDbEntity
100
AcDbBlockEnd
0
ENDSEC
0
SECTION
2
ENTITIES
0
LWPOLYLINE
5
100
100
AcDbEntity
8
0
100
AcDbPolyline
90
4
70
1
43
0.0
10
40
20
-3.75
10
145
20
-3.75
10
145
20
-1.25
10
40
20
-1.25
0
LWPOLYLINE
5
101
100
AcDbEntity
8
0
100
AcDbPolyline
90
4
70
1
43
0.0
10
-40.000000000000071
20
-6.25
10
-145.00000000000006
20
-6.25
10
-145.00000000000006
20
-8.75
10
-40.000000000000057
20
-8.75
0
LWPOLYLINE
5
102
100
AcDbEntity
8
0
100
AcDbPolyline
90
4
70
1
43
0.0
10
145
20
-11.25
10
40
20
-11.25
10
40
20
-13.75
10
145
20
-13.75
0
LWPOLYLINE
5
103
100
AcDbEntity
8
0
100
AcDbPolyline
90
4
70
1
43
0.0
10
-145.00000000000006
20
-31.25
10
-40.000000000000071
20
-31.25
10
-40.000000000000071
20
-33.75
10
-145.00000000000006
20
-33.75
0
LWPOLYLINE
5
104
100
AcDbEntity
8
0
100
AcDbPolyline
90
4
70
1
43
0.0
10
145
20
26.25
10
40
20
26.25
10
40
20
28.75
10
145
20
28.750000000000004
0
LWPOLYLINE
5
105
100
AcDbEntity
8
0
100
AcDbPolyline
90
4
70
1
43
0.0
10
-145.00000000000006
20
-16.25
10
-40.000000000000071
20
-16.25
10
-40.000000000000071
20
-18.75
10
-145.00000000000006
20
-18.75
0
LWPOLYLINE
5
106
100
AcDbEntity
8
0
100
AcDbPolyline
90
4
70
1
43
0.0
10
-145.00000000000006
20
43.75
10
-40.000000000000071
20
43.75
10
-40.000000000000071
20
41.250000000000007
10
-145.00000000000006
20
41.25
0
LWPOLYLINE
5
107
100
AcDbEntity
8
0
100
AcDbPolyline
90
4
70
1
43
0.0
10
-145.00000000000006
20
-38.75
10
-40.000000000000057
20
-38.75
10
-40.000000000000071
20
-36.25
10
-145.00000000000006
20
-36.25
0
LWPOLYLINE
5
108
100
AcDbEntity
8
0
100
AcDbPolyline
90
4
70
1
43
0.0
10
145
20
38.750000000000007
10
145
20
36.250000000000007
10
40
20
36.25
10
40
20
38.75
0
LWPOLYLINE
5
109
100
AcDbEntity
8
0
100
AcDbPolyline
90
4
70
1
43
0.0
10
-30
20
99.999999999999858
10
30
20
99.999999999999858
42
0.99999999999999989
10
30
20
149.99999999999986
10
-30
20
149.99999999999986
42
0.99999999999999989
0
LWPOLYLINE
5
110
100
AcDbEntity
8
0
100
AcDbPolyline
90
4
70
1
43
0.0
10
-40.000000000000071
20
-23.75
10
-40.000000000000071
20
-21.250000000000004
10
-145.00000000000006
20
-21.25
10
-145.00000000000006
20
-23.75
0
LWPOLYLINE
5
111
100
AcDbEntity
8
0
100
AcDbPolyline
90
4
70
1
43
0.0
10
145
20
11.25
10
145
20
13.75
10
40
20
13.75
10
40
20
11.25
0
LWPOLYLINE
5
112
100
AcDbEntity
8
0
100
AcDbPolyline
90
4
70
1
43
0.0
10
145
20
-33.75
10
145
20
-31.25
10
40
20
-31.25
10
40
20
-33.75
0
LWPOLYLINE
5
113
100
AcDbEntity
8
0
100
AcDbPolyline
90
4
70
1
43
0.0
10
145
20
-41.250000000000007
10
40
20
-41.25
10
40
20
-43.75
10
145
20
-43.75
0
LWPOLYLINE
5
114
100
AcDbEntity
8
0
100
AcDbPolyline
90
4
70
1
43
0.0
10
145
20
43.75
10
40
20
43.75
10
40
20
41.25
10
145
20
41.250000000000007
0
LWPOLYLINE
5
115
100
AcDbEntity
8
0
100
AcDbPolyline
90
4
70
1
43
0.0
10
-40.000000000000071
20
-48.750000000000369
10
-40.000000000000071
20
-46.250000000000007
10
-145.00000000000006
20
-46.25
10
-145.00000000000006
20
-48.75
0
LWPOLYLINE
5
116
100
AcDbEntity
8
0
100
AcDbPolyline
90
4
70
1
43
0.0
10
-40.000000000000071
20
31.25
10
-40.000000000000071
20
33.75
10
-145.00000000000006
20
33.75
10
-145.00000000000006
20
31.25
0
LWPOLYLINE
5
117
100
AcDbEntity
8
0
100
AcDbPolyline
90
8
70
1
43
0.0
10
98.472552155428644
20
-132.39394424216079
42
-0.9295931812136784
10
132.3939442421607
20
-98.472552155428843
42
0.33111821562595384
10
132.3939442421609
20
98.472552155428644
42
-0.92959318121367029
10
98.472552155428659
20
132.39394424216079
42
0.33111821562595334
10
-98.472552155428701
20
132.3939442421609
42
-0.92959318121367551
10
-132.39394424216084
20
98.472552155428644
42
0.33111821562595423
10
-132.39394424216079
20
-98.472552155428644
42
-0.92959318121367551
10
-98.472552155428602
20
-132.39394424216076
42
0.33111821562595417
0
LWPOLYLINE
5
118
100
AcDbEntity
8
0
100
AcDbPolyline
90
4
70
1
43
0.0
10
-145.00000000000006
20
-1.25
10
-145.00000000000006
20
-3.75
10
-40.000000000000071
20
-3.75
10
-40.000000000000071
20
-1.25
0
LWPOLYLINE
5
119
100
AcDbEntity
8
0
100
AcDbPolyline
90
4
70
1
43
0.0
10
40
20
46.25
10
145
20
46.25
10
145
20
48.75
10
40
20
48.75
0
LWPOLYLINE
5
120
100
AcDbEntity
8
0
100
AcDbPolyline
90
4
70
1
43
0.0
10
-145.00000000000006
20
8.75
10
-145.00000000000006
20
6.25
10
-40.000000000000071
20
6.250000000000008
10
-40.000000000000071
20
8.75
0
LWPOLYLINE
5
121
100
AcDbEntity
8
0
100
AcDbPolyline
90
4
70
1
43
0.0
10
145
20
-46.250000000000007
10
145
20
-48.750000000000369
10
40
20
-48.75
10
40
20
-46.25
0
LWPOLYLINE
5
122
100
AcDbEntity
8
0
100
AcDbPolyline
90
4
70
1
43
0.0
10
145.00000000000003
20
-28.75
10
40
20
-28.75
10
40
20
-26.25
10
145
20
-26.25
0
LWPOLYLINE
5
123
100
AcDbEntity
8
0
100
AcDbPolyline
90
4
70
1
43
0.0
10
145
20
-18.75
10
145
20
-16.25
10
40
20
-16.25
10
40
20
-18.75
0
LWPOLYLINE
5
124
100
AcDbEntity
8
0
100
AcDbPolyline
90
4
70
1
43
0.0
10
-145.00000000000006
20
26.25
10
-40.000000000000071
20
26.25
10
-40.000000000000071
20
28.750000000000004
10
-145.00000000000006
20
28.75
0
CIRCLE
5
125
100
AcDbEntity
8
0
100
AcDbCircle
10
-7.1054273576010006e-14
20
79.999999999999844
30
0
40
1.5000000000000002
0
LWPOLYLINE
5
126
100
AcDbEntity
8
0
100
AcDbPolyline
90
4
70
1
43
0.0
10
40
20
33.75
10
40
20
31.25
10
145
20
31.25
10
145
20
33.75
0
LWPOLYLINE
5
127
100
AcDbEntity
8
0
100
AcDbPolyline
90
4
70
1
43
0.0
10
-145.00000000000006
20
23.75
10
-40.000000000000071
20
23.75
10
-40.000000000000071
20
21.25
10
-145.00000000000006
20
21.25
0
LWPOLYLINE
5
128
100
AcDbEntity
8
0
100
AcDbPolyline
90
4
70
1
43
0.0
10
-145.00000000000006
20
18.75
10
-145.00000000000006
20
16.25
10
-40.000000000000071
20
16.25
10
-40.000000000000071
20
18.750000000000007
0
LWPOLYLINE
5
129
100
AcDbEntity
8
0
100
AcDbPolyline
90
4
70
1
43
0.0
10
-40.000000000000071
20
-13.75
10
-40.000000000000071
20
-11.25
10
-145.00000000000006
20
-11.25
10
-145.00000000000006
20
-13.75
0
LWPOLYLINE
5
130
100
AcDbEntity
8
0
100
AcDbPolyline
90
4
70
1
43
0.0
10
-40.000000000000057
20
-28.75
10
-40.000000000000071
20
-26.25
10
-145.00000000000006
20
-26.25
10
-145.00000000000006
20
-28.75
0
LWPOLYLINE
5
131
100
AcDbEntity
8
0
100
AcDbPolyline
90
4
70
1
43
0.0
10
40
20
-6.25
10
40
20
-8.75
10
145.00000000000003
20
-8.75
10
145
20
-6.25
0
LWPOLYLINE
5
132
100
AcDbEntity
8
0
100
AcDbPolyline
90
4
70
1
43
0.0
10
40
20
23.75
10
40
20
21.25
10
145
20
21.25
10
145
20
23.75
0
LWPOLYLINE
5
133
100
AcDbEntity
8
0
100
AcDbPolyline
90
4
70
1
43
0.0
10
145
20
-36.25
10
40
20
-36.25
10
40
20
-38.75
10
145.00000000000003
20
-38.75
0
LWPOLYLINE
5
134
100
AcDbEntity
8
0
100
AcDbPolyline
90
4
70
1
43
0.0
10
-145.00000000000006
20
36.25
10
-40.000000000000071
20
36.250000000000007
10
-40.000000000000071
20
38.750000000000007
10
-145.00000000000006
20
38.75
0
LWPOLYLINE
5
135
100
AcDbEntity
8
0
100
AcDbPolyline
90
4
70
1
43
0.0
10
29.999999999999972
20
-150.00000000000011
42
0.99999999999999989
10
30
20
-100.00000000000016
10
-30.000000000000018
20
-100.00000000000014
42
0.99999999999999989
10
-30.000000000000004
20
-150.00000000000014
0
CIRCLE
5
136
100
AcDbEntity
8
0
100
AcDbCircle
10
-71.983470324790559
20
-108.32875887777905
30
0
40
1.5000000000000036
0
CIRCLE
5
137
100
AcDbEntity
8
0
100
AcDbCircle
10
-104.79322497184637
20
-75.519004230723283
30
0
40
1.5000000000000036
0
LWPOLYLINE
5
138
100
AcDbEntity
8
0
100
AcDbPolyline
90
4
70
1
43
0.0
10
145
20
-23.75
10
145
20
-21.250000000000004
10
40
20
-21.25
10
40
20
-23.75
0
LWPOLYLINE
5
139
100
AcDbEntity
8
0
100
AcDbPolyline
90
4
70
1
43
0.0
10
145
20
3.75
10
40
20
3.75
10
40
20
1.25
10
145
20
1.2500000000000064
0
LWPOLYLINE
5
140
100
AcDbEntity
8
0
100
AcDbPolyline
90
4
70
1
43
0.0
10
145
20
18.750000000000007
10
145
20
16.25
10
40
20
16.25
10
40
20
18.75
0
CIRCLE
5
141
100
AcDbEntity
8
0
100
AcDbCircle
10
-7.1054273576010006e-14
20
-80.000000000000142
30
0
40
1.5000000000000002
0
LWPOLYLINE
5
142
100
AcDbEntity
8
0
100
AcDbPolyline
90
4
70
1
43
0.0
10
-40.000000000000071
20
48.75
10
-145.00000000000006
20
48.75
10
-145.00000000000006
20
46.25
10
-40.000000000000071
20
46.25
0
LWPOLYLINE
5
143
100
AcDbEntity
8
0
100
AcDbPolyline
90
4
70
1
43
0.0
10
-145.00000000000006
20
3.75
10
-40.000000000000071
20
3.75
10
-40.000000000000071
20
1.2500000000000064
10
-145.00000000000006
20
1.25
0
CIRCLE
5
144
100
AcDbEntity
8
0
100
AcDbCircle
10
-71.983470324790545
20
104.79322497184633
30
0
40
1.4999999999999991
0
CIRCLE
5
145
100
AcDbEntity
8
0
100
AcDbCircle
10
-7.1054273576010006e-14
20
-1.5987211554602254e-13
30
0
40
25.399999999999999
0
LWPOLYLINE
5
146
100
AcDbEntity
8
0
100
AcDbPolyline
90
4
70
1
43
0.0
10
145
20
6.250000000000008
10
40
20
6.25
10
40
20
8.75
10
145
20
8.75
0
CIRCLE
5
147
100
AcDbEntity
8
0
100
AcDbCircle
10
108.32875887777905
20
-75.519004230723283
30
0
40
1.4999999999999971
0
LWPOLYLINE
5
148
100
AcDbEntity
8
0
100
AcDbPolyline
90
4
70
1
43
0.0
10
-145.00000000000006
20
-41.25
10
-145.00000000000006
20
-43.75
10
-40.000000000000071
20
-43.75
10
-40.000000000000071
20
-41.250000000000007
0
CIRCLE
5
149
100
AcDbEntity
8
0
100
AcDbCircle
10
75.519004230723283
20
104.79322497184633
30
0
40
1.5000000000000013
0
LWPOLYLINE
5
150
100
AcDbEntity
8
0
100
AcDbPolyline
90
4
70
1
43
0.0
10
-40.000000000000071
20
11.25
10
-145.00000000000006
20
11.25
10
-145.00000000000006
20
13.75
10
-40.000000000000071
20
13.75
0
CIRCLE
5
151
100
AcDbEntity
8
0
100
AcDbCircle
10
75.519004230723283
20
-108.32875887777905
30
0
40
1.4999999999999971
0
CIRCLE
5
152
100
AcDbEntity
8
0
100
AcDbCircle
10
-104.79322497184637
20
71.983470324790503
30
0
40
1.5000000000000036
0
CIRCLE
5
153
100
AcDbEntity
8
0
100
AcDbCircle
10
108.32875887777905
20
71.983470324790503
30
0
40
1.5000000000000036
0
ENDSEC
0
SECTION
2
OBJECTS
0
DICTIONARY
5
C
100
AcDbDictionary
3
ACAD_GROUP
350
D
3
ACAD_MLINESTYLE
350
17
0
DICTIONARY
5
D
100
AcDbDictionary
0
DICTIONARY
5
1A
330
C
100
AcDbDictionary
0
DICTIONARY
5
17
100
AcDbDictionary
0
ENDSEC
0
EOF
